<?xml version="1.0" encoding="UTF-8"?>
<svg version="1.1" xmlns="http://www.w3.org/2000/svg" width="512" height="512">
<path d="M0 0 C1.00911438 0.21457855 2.01822876 0.4291571 3.05792236 0.65023804 C6.37326651 1.35702701 9.68606565 2.07508543 12.99902344 2.79296875 C15.30953627 3.2870401 17.6202285 3.78027321 19.93109131 4.27270508 C26.00055516 5.56786305 32.06804227 6.87203704 38.13500977 8.17883301 C47.85922599 10.27243106 57.58578629 12.3550392 67.31346893 14.4324646 C70.71114366 15.15985922 74.10759687 15.89276342 77.50396729 16.6262207 C79.58073003 17.07131216 81.65753056 17.51622739 83.734375 17.9609375 C84.67990234 18.16665375 85.62542969 18.37237 86.59960938 18.58432007 C87.46861877 18.76943146 88.33762817 18.95454285 89.23297119 19.14526367 C89.98582523 19.30749924 90.73867928 19.4697348 91.51434708 19.6368866 C93.9125936 20.08840903 93.9125936 20.08840903 97.60839844 19.98046875 C98.99281843 18.01548553 100.32043678 16.0099841 101.60839844 13.98046875 C105.16404141 10.21567031 108.73445974 9.15857502 113.62011719 7.984375 C121.82000851 7.97365619 128.993319 11.99005269 135.92089844 15.98046875 C146.18938378 21.7410162 156.619887 27.13468421 167.10839844 32.48046875 C177.89050149 37.98314887 188.61849006 43.54323283 199.20605469 49.4140625 C207.74613255 54.11955441 216.42760384 58.5421901 225.10839844 62.98046875 C236.86530164 68.99250025 248.55204081 75.09750519 260.10058594 81.50390625 C262.91441121 83.06398844 265.74172585 84.57433216 268.61621094 86.01953125 C275.76512378 89.6499635 281.92849714 92.94076485 284.60839844 100.98046875 C286.29052397 110.46626942 282.45195596 117.29352085 278.05126953 125.31054688 C276.05317252 129.00787156 274.14770488 132.75101541 272.23391724 136.49249268 C266.44277576 147.80861967 260.52625337 159.04290692 254.37890625 170.17041016 C249.19805129 179.61271521 244.32503807 189.21095772 239.42269897 198.79962158 C234.49243819 208.43791124 229.47232253 218.00575831 224.22558594 227.4765625 C219.50589278 236.05196127 215.06375564 244.76593675 210.60839844 253.48046875 C205.29001712 263.88304752 199.91333676 274.23157977 194.23876953 284.44580078 C191.07565371 290.18119241 188.05468135 295.97932787 185.08496094 301.81640625 C184.68597595 302.59929016 184.28699097 303.38217407 183.87591553 304.18878174 C181.88163897 308.10500669 179.89661248 312.02554037 177.92480469 315.953125 C167.75941199 336.06171224 167.75941199 336.06171224 159.60839844 339.98046875 C145.61708311 343.69691188 132.44630539 333.34828512 120.60839844 326.98046875 C117.06043116 325.0739299 113.51226139 323.16777404 109.96337891 321.26293945 C107.58438139 319.9859527 105.2074624 318.70533602 102.83154297 317.42260742 C100.56428832 316.20266743 98.29252389 314.99107222 96.01635742 313.7878418 C93.7434811 312.58244718 91.48236819 311.35460675 89.23364258 310.10473633 C80.91510361 305.64369207 73.05861091 303.24141127 63.83764648 301.46166992 C61.64382389 301.03773688 59.45748673 300.58477206 57.27050781 300.12695312 C48.02317533 298.22151051 48.02317533 298.22151051 38.60839844 297.98046875 C36.89564308 299.25405607 35.2317281 300.59469952 33.60839844 301.98046875 C26.24836661 305.1681646 18.46322847 306.88904415 10.69824219 308.796875 C9.19896846 309.16909078 7.69981062 309.5417736 6.20075989 309.91488647 C2.99242709 310.71260438 -0.21657523 311.50754617 -3.42614746 312.30026245 C-11.10692675 314.19754892 -18.78411005 316.10930687 -26.46162796 318.01973915 C-29.11546988 318.67997003 -31.7694476 319.33965305 -34.4234314 319.99931335 C-52.84434863 324.58028633 -71.24436931 329.24293552 -89.64160156 333.91796875 C-91.8942052 334.4902752 -94.14681576 335.06255444 -96.39943027 335.63481808 C-97.84757681 336.00275119 -99.29570428 336.37075938 -100.74381161 336.73884678 C-104.13675567 337.60119238 -107.52996808 338.46244293 -110.92393494 339.320755 C-116.16486126 340.64713765 -121.40398202 341.97575335 -126.62792969 343.36767578 C-127.73766144 343.65899132 -127.73766144 343.65899132 -128.86981201 343.95619202 C-130.65724744 344.426788 -132.44209902 344.90717329 -134.2265625 345.38891602 C-140.8973286 346.63569681 -146.31546083 346.30514953 -152.39160156 342.98046875 C-159.14131647 337.45797473 -160.8372623 329.94150983 -162.84570312 321.82348633 C-163.07301306 320.9247303 -163.30032299 320.02597427 -163.5345211 319.09998322 C-164.28930733 316.10968944 -165.03577509 313.11738427 -165.78222656 310.125 C-166.32009622 307.98670811 -166.85846877 305.84854267 -167.39730835 303.710495 C-168.8500056 297.94013783 -170.29545815 292.167988 -171.73957062 286.39547729 C-173.25007663 280.36285629 -174.76732633 274.33193161 -176.28369141 268.30078125 C-179.99574606 253.52969956 -183.69526463 238.75549044 -187.39160156 223.98046875 C-187.6777684 222.83670525 -187.96393524 221.69294174 -188.2587738 220.51451874 C-190.16568258 212.89265507 -192.07188749 205.27061559 -193.97753906 197.6484375 C-194.23654999 196.61246744 -194.49556091 195.57649738 -194.76242065 194.50913429 C-197.21506681 184.69847151 -199.6668128 174.88758914 -202.1113205 165.07489491 C-203.00161452 161.50168062 -203.89298512 157.92873513 -204.78427124 154.3557682 C-205.42095416 151.80068571 -206.05564682 149.24511461 -206.69018555 146.6894989 C-208.73877358 138.45793662 -210.83944826 130.24440143 -213.03515625 122.05078125 C-213.46113249 120.44761576 -213.8868673 118.8443861 -214.31234741 117.24108887 C-215.09878333 114.27780982 -215.903488 111.32043424 -216.72012329 108.36535645 C-221.94442953 89.00537095 -221.94442953 89.00537095 -217.26660156 80.48046875 C-213.50654718 74.87725045 -207.81504712 72.52302417 -201.46826172 70.96582031 C-200.80414276 70.79942551 -200.1400238 70.6330307 -199.45578003 70.46159363 C-197.28334254 69.92021105 -195.10724 69.39556531 -192.93066406 68.87109375 C-191.4144077 68.49669763 -189.89840957 68.1212543 -188.38265991 67.74481201 C-184.41008477 66.7611721 -180.43418085 65.79172044 -176.45739746 64.82525635 C-172.3929803 63.83481511 -168.33189783 62.8308928 -164.27050781 61.828125 C-156.31406118 59.86575232 -148.35404443 57.91836721 -140.39160156 55.98046875 C-140.42640625 54.70171875 -140.46121094 53.42296875 -140.49707031 52.10546875 C-140.52522943 50.39714866 -140.5525273 48.68881423 -140.57910156 46.98046875 C-140.60423828 46.14128906 -140.629375 45.30210937 -140.65527344 44.4375 C-140.73279929 37.77027654 -139.93212155 31.96660414 -135.45410156 26.703125 C-134.77347656 26.15527344 -134.09285156 25.60742188 -133.39160156 25.04296875 C-132.71097656 24.47707031 -132.03035156 23.91117188 -131.32910156 23.328125 C-128.25748639 21.19161848 -125.56634084 20.83811805 -121.92822266 20.69921875 C-120.56336227 20.64406601 -120.56336227 20.64406601 -119.17092896 20.58779907 C-118.17898529 20.55238007 -117.18704163 20.51696106 -116.16503906 20.48046875 C-115.12483612 20.44013519 -114.08463318 20.39980164 -113.01290894 20.35824585 C-109.59763509 20.22752205 -106.18215291 20.10371274 -102.76660156 19.98046875 C-100.41991944 19.89280604 -98.07323977 19.80507773 -95.7265625 19.71728516 C-74.95258333 18.95276597 -54.17506644 18.40525542 -33.39160156 17.98046875 C-33.2675293 17.36921143 -33.14345703 16.7579541 -33.015625 16.12817383 C-32.84579102 15.32275146 -32.67595703 14.5173291 -32.50097656 13.6875 C-32.3356543 12.89061768 -32.17033203 12.09373535 -32 11.27270508 C-30.71678935 6.43800812 -28.25334162 3.63117043 -24.32910156 0.66796875 C-16.40895269 -3.881904 -8.45519879 -1.8554676 0 0 Z " fill="#563535" transform="translate(223.3916015625,84.01953125)"/>
<path d="M0 0 C1.57870238 2.50073001 2.25804253 4.85994251 3.02563477 7.72143555 C3.19377182 8.33994888 3.36190887 8.95846222 3.53514099 9.59571838 C4.11497702 11.74542365 4.67806843 13.89914042 5.24047852 16.0534668 C5.66737867 17.66126284 6.09447059 19.26900798 6.52172852 20.87670898 C18.90040835 67.76106168 30.21528477 114.94023958 41.7981472 162.02573776 C43.29713217 168.11913292 44.79789917 174.21208678 46.30010986 180.3046875 C46.86638448 182.60191279 47.43213786 184.89926665 47.99725342 187.19677734 C48.70485199 190.07147779 49.41543861 192.94541904 50.12719727 195.8190918 C50.32602005 196.62924744 50.52484283 197.43940308 50.72969055 198.27410889 C51.67122666 202.1689669 51.67122666 202.1689669 53.17797852 205.8659668 C53.63685955 212.17558107 53.63685955 212.17558107 52.11962891 214.45825195 C49.29251998 216.50793259 46.20429416 217.15339389 42.86157227 217.9519043 C42.13164566 218.13556549 41.40171906 218.31922668 40.64967346 218.50845337 C38.30728445 219.09588216 35.9616788 219.66897027 33.61547852 220.2409668 C30.57153789 220.99489603 27.52903168 221.75452308 24.48657227 222.5144043 C23.70892014 222.70745651 22.93126801 222.90050873 22.13005066 223.09941101 C17.07135857 224.36337251 12.05162863 225.73020947 7.03735352 227.15893555 C-6.16150841 230.89408536 -19.52400077 234.02736059 -32.84887695 237.27655029 C-38.53521292 238.66327737 -44.22083971 240.05289358 -49.90573502 241.44551468 C-51.29070896 241.78460294 -52.67578683 242.12326697 -54.06097031 242.46149826 C-60.9846152 244.15269946 -67.89867996 245.868906 -74.78540039 247.70629883 C-75.84350418 247.9884877 -76.90160797 248.27067657 -77.99177551 248.56141663 C-79.92558019 249.081504 -81.85762948 249.60818679 -83.78739929 250.14305115 C-92.37220221 252.45992332 -92.37220221 252.45992332 -96.82202148 251.8659668 C-100.54251699 249.33661542 -101.02980227 245.22082049 -102.01098633 241.10009766 C-102.30683372 239.91386055 -102.30683372 239.91386055 -102.60865784 238.70365906 C-103.26001955 236.08172085 -103.89638 233.45637335 -104.53295898 230.83081055 C-104.98651998 228.99467193 -105.4410955 227.15878365 -105.89663696 225.32313538 C-107.09740601 220.4743038 -108.28587848 215.62254372 -109.47137451 210.7699585 C-111.35807508 203.05700472 -113.2645885 195.34891736 -115.16862869 187.64023018 C-115.8258828 184.97276059 -116.47875867 182.30425348 -117.13070679 179.63548279 C-119.06324738 171.75224601 -121.05679635 163.89885789 -123.26293945 156.08740234 C-126.33055216 145.21740426 -129.03001027 134.25832589 -131.74389648 123.2956543 C-132.29477366 121.07607903 -132.84573972 118.85652582 -133.39678955 116.63699341 C-134.54145131 112.02365238 -135.68409313 107.40981663 -136.82543945 102.7956543 C-138.28538774 96.89476133 -139.75194732 90.99553304 -141.22016525 85.09669304 C-142.3557539 80.530081 -143.48711711 75.96242992 -144.61728668 71.39447403 C-145.15643666 69.21808553 -145.69706121 67.04206175 -146.23921967 64.86642075 C-146.99486464 61.83202257 -147.74460981 58.79622386 -148.49291992 55.76000977 C-148.71523788 54.87262619 -148.93755585 53.98524261 -149.16661072 53.07096863 C-149.75344296 50.67542211 -150.30177073 48.27677918 -150.82202148 45.8659668 C-150.98899788 45.1236594 -151.15597427 44.38135201 -151.32801056 43.61655045 C-151.925072 40.36907666 -152.1490533 38.4251799 -150.4546814 35.52786255 C-146.71893661 33.16963225 -142.97532198 32.27626669 -138.69946289 31.27563477 C-137.77480728 31.04727432 -136.85015167 30.81891388 -135.8974762 30.58363342 C-132.82593348 29.8284885 -129.74992255 29.09349479 -126.67358398 28.3581543 C-124.50556344 27.82865624 -122.33787457 27.29779852 -120.17050171 26.76565552 C-114.43080221 25.35982543 -108.68723961 23.97048856 -102.94256592 22.58514404 C-93.89543887 20.40025441 -84.85456308 18.18954624 -75.81295013 15.98197174 C-72.49448187 15.17270227 -69.17527658 14.36650711 -65.85601807 13.56048584 C-55.64625372 11.07478093 -45.45447733 8.54111962 -35.30151367 5.83178711 C-33.96504445 5.47551963 -33.96504445 5.47551963 -32.60157585 5.11205482 C-28.486862 4.01178355 -24.37615785 2.89872665 -20.27017212 1.7663269 C-18.83614364 1.37774295 -17.4020935 0.9892389 -15.96801758 0.60083008 C-14.74762787 0.26383087 -13.52723816 -0.07316833 -12.26986694 -0.42037964 C-3.56896675 -2.22133868 -3.56896675 -2.22133868 0 0 Z " fill="#553736" transform="translate(183.822021484375,147.134033203125)"/>
<path d="M0 0 C0.84396071 2.36308757 1.47055104 4.57615681 2.03369141 7.00952148 C2.21474426 7.74509277 2.39579712 8.48066406 2.58233643 9.23852539 C3.18423046 11.69659683 3.76767243 14.15868905 4.3515625 16.62109375 C4.7728904 18.35455223 5.19546924 20.08770708 5.61923218 21.8205719 C6.74159586 26.42284376 7.84893956 31.02859669 8.95263672 35.63537598 C10.68802723 42.86774511 12.44590552 50.09470128 14.20235443 57.32197952 C14.63517174 59.10477146 15.06714302 60.88776901 15.49826813 62.67097092 C17.79325014 72.16244709 20.13496745 81.63634601 22.65527344 91.07080078 C22.86726316 91.86436635 23.07925289 92.65793192 23.29766655 93.47554493 C24.29580475 97.19939962 25.30478189 100.91997232 26.32778931 104.6370697 C26.50892902 105.30410604 26.69006874 105.97114239 26.87669754 106.65839195 C27.35938456 108.43574542 27.84865867 110.2113064 28.33847046 111.98670959 C28.95093313 114.77649869 29.13579699 117.15787439 29 120 C23.09903314 122.33837481 17.23719083 124.07233811 11.07421875 125.57202148 C10.11364059 125.80987366 9.15306244 126.04772583 8.16337585 126.29278564 C5.00585467 127.07344253 1.84670696 127.84728993 -1.3125 128.62109375 C-3.52728653 129.16730193 -5.74196582 129.71394512 -7.95654297 130.26100159 C-13.78214428 131.69887318 -19.60914032 133.13101018 -25.4364624 134.56188965 C-31.31913629 136.00734378 -37.2005496 137.4579069 -43.08203125 138.90820312 C-49.71875076 140.54449611 -56.35558594 142.18030392 -62.9934082 143.81211853 C-64.00504532 144.06101365 -65.01668243 144.30990877 -66.05897522 144.56634617 C-68.0154695 145.04707675 -69.97227791 145.52653106 -71.9294281 146.00458431 C-76.24053725 147.0600743 -80.54323416 148.13453378 -84.83105469 149.28128052 C-85.93506119 149.57225286 -85.93506119 149.57225286 -87.06137085 149.86910343 C-88.9876075 150.37950358 -90.91071072 150.90169032 -92.83349609 151.42494202 C-95.97833971 151.99606635 -97.95704901 151.87922763 -101 151 C-101.39677193 149.40625046 -101.39677193 149.40625046 -101.80155945 147.78030396 C-104.31392973 137.69000134 -106.82888473 127.60034592 -109.34627056 117.51129341 C-110.63991059 112.32636582 -111.93268832 107.14122663 -113.22338867 101.95556641 C-114.47267251 96.93644875 -115.72436069 91.91793597 -116.97760963 86.89980698 C-117.45159643 85.00020901 -117.9247654 83.10040675 -118.39703941 81.20038223 C-120.90659865 71.10647941 -123.48169544 61.04144223 -126.3163023 51.03326607 C-130.29812624 36.96252474 -130.29812624 36.96252474 -130 31 C-102.27718953 23.81337845 -74.49568868 16.88058323 -46.67649937 10.07827377 C-43.96303378 9.41459746 -41.24980312 8.74996464 -38.53663826 8.08506012 C-36.58852838 7.60793726 -34.64014453 7.13193344 -32.6917572 6.65594482 C-27.09576802 5.28241149 -21.51047271 3.8865281 -15.94921875 2.37792969 C-15.05710693 2.13609955 -14.16499512 1.89426941 -13.24584961 1.64511108 C-11.64155116 1.20533354 -10.03928103 0.75805063 -8.43969727 0.30142212 C-3.32499608 -1.10833203 -3.32499608 -1.10833203 0 0 Z " fill="#54B68A" transform="translate(176,160)"/>
<path d="M0 0 C3.28196418 2.19316985 3.85783099 5.1655173 4.84765625 8.85546875 C5.0157933 9.47398209 5.18393036 10.09249542 5.35716248 10.72975159 C5.9369985 12.87945686 6.50008992 15.03317362 7.0625 17.1875 C7.48940016 18.79529604 7.91649207 20.40304118 8.34375 22.01074219 C17.95278059 58.40502537 26.82835679 95.00234924 35.8125 131.5546875 C36.00875347 132.35306093 36.20500694 133.15143436 36.40720749 133.97400093 C36.99724766 136.37434352 37.58725151 138.77469503 38.17724609 141.17504883 C38.37019445 141.96002778 38.56314281 142.74500673 38.7619381 143.55377293 C38.95399645 144.33513583 39.1460548 145.11649874 39.34393311 145.92153931 C39.63064503 147.08796652 39.63064503 147.08796652 39.92314911 148.27795792 C40.30729245 149.84092784 40.69137157 151.40391354 41.07538605 152.96691513 C46.06719161 173.28335684 51.11395668 193.57950713 56.54266357 213.78466797 C57.36715816 216.8550233 58.18445785 219.92725551 59 223 C59.18550415 223.69486511 59.3710083 224.38973022 59.56213379 225.10565186 C60.13535498 227.26504261 60.69780795 229.42699202 61.2578125 231.58984375 C61.59184082 232.86593506 61.92586914 234.14202637 62.27001953 235.45678711 C62.97050571 238.85683925 63.4434273 241.5566513 63 245 C60.24351879 248.36284368 58.00119902 249.62090304 53.81347656 250.63720703 C52.7621756 250.8998082 51.71087463 251.16240936 50.62771606 251.43296814 C49.47697601 251.70516678 48.32623596 251.97736542 47.140625 252.2578125 C45.26635917 252.71982344 43.39209346 253.18183485 41.5178318 253.64386272 C39.49820269 254.13877518 37.47698051 254.6266047 35.45513916 255.11239624 C31.20601944 256.13350379 26.96183045 257.17411525 22.71826172 258.21801758 C17.44514225 259.51390801 12.17096254 260.80530895 6.89539909 262.09121418 C-7.67232661 265.64299915 -22.2205165 269.27268681 -36.76683807 272.91098785 C-41.44448075 274.08085824 -46.1229666 275.24726343 -50.80228424 276.41041565 C-71.18705525 281.46724113 -71.18705525 281.46724113 -91.44580078 287.00317383 C-103.12041539 290.27748702 -103.12041539 290.27748702 -108 290.125 C-108.763125 290.10695313 -109.52625 290.08890625 -110.3125 290.0703125 C-111.1478125 290.03550781 -111.1478125 290.03550781 -112 290 C-114.30303534 285.72528372 -115.75486925 281.7051924 -116.91357422 276.99511719 C-117.0815451 276.32089722 -117.24951599 275.64667725 -117.4225769 274.95202637 C-117.97320445 272.73521498 -118.51387414 270.51609904 -119.0546875 268.296875 C-119.44129306 266.73414235 -119.82860446 265.17158418 -120.21658325 263.60919189 C-121.23670585 259.49452757 -122.24876542 255.37792554 -123.25866699 251.26074219 C-124.86536405 244.71557581 -126.48370469 238.17328448 -128.10315323 231.63126373 C-128.66018824 229.37582756 -129.21344389 227.1194928 -129.76608276 224.86297607 C-131.76704529 216.72834724 -133.9056991 208.6456348 -136.1715641 200.58077335 C-138.18598204 193.39151389 -140.02695462 186.16352228 -141.828125 178.91796875 C-142.17818695 177.51702879 -142.52843829 176.11613615 -142.87886047 174.71528625 C-143.81245777 170.98016744 -144.74294024 167.24428012 -145.67247391 163.50814819 C-146.25496096 161.1675656 -146.83816644 158.82716315 -147.42160034 156.48681641 C-149.66302041 147.49529463 -151.90026471 138.50274201 -154.13414478 129.5093441 C-155.58192359 123.6810711 -157.03197599 117.8533671 -158.48291016 112.02587891 C-160.47161934 104.03740519 -162.45439913 96.04747576 -164.43322754 88.05654907 C-165.18235954 85.03195816 -165.93351291 82.00788039 -166.68640137 78.98422241 C-167.57085731 75.43149286 -168.45077026 71.87766826 -169.32723045 68.32295799 C-169.79991971 66.41045463 -170.27711436 64.49906655 -170.75447083 62.58772278 C-173.82805285 50.07928196 -173.82805285 50.07928196 -174 45 C-171.74423902 41.83715926 -169.09289885 41.24159772 -165.42724609 40.32446289 C-163.68307655 39.87997047 -163.68307655 39.87997047 -161.90367126 39.42649841 C-159.98295555 38.95434654 -159.98295555 38.95434654 -158.0234375 38.47265625 C-156.65676675 38.12885183 -155.29032221 37.7841471 -153.92408752 37.43861389 C-150.19242292 36.49778194 -146.45754452 35.5703296 -142.72196579 34.64517975 C-138.78352039 33.66738434 -134.84817638 32.67725222 -130.91235352 31.68896484 C-113.20412139 27.24877038 -95.47842781 22.87852603 -77.75390625 18.50390625 C-76.83830933 18.27790049 -75.9227124 18.05189472 -74.97937012 17.8190403 C-65.99290422 15.6011294 -57.00592121 13.38541622 -48.01565266 11.18296337 C-44.6632859 10.36141127 -41.31139084 9.53794478 -37.95954704 8.71426201 C-36.41306225 8.33480403 -34.86634599 7.95628783 -33.31936836 7.57884407 C-31.17837379 7.05644433 -29.0380397 6.53147707 -26.89819336 6.00439453 C-26.22970021 5.83979327 -25.56120707 5.67519201 -24.87245655 5.50560284 C-19.18385802 4.08536268 -13.57472067 2.44502338 -7.96754456 0.72970581 C-5.14935461 0.03672562 -2.88403722 -0.2341444 0 0 Z M-26.3125 21.6875 C-27.27478516 21.93177734 -28.23707031 22.17605469 -29.22851562 22.42773438 C-34.40501822 23.75461207 -39.55592546 25.15459312 -44.69551086 26.61782837 C-58.53746404 30.5397234 -72.52811601 33.88221372 -86.5022583 37.29400635 C-89.98886281 38.14563248 -93.47490368 38.99955698 -96.9609375 39.85351562 C-97.64848995 40.02184843 -98.3360424 40.19018124 -99.04442978 40.36361504 C-102.50488755 41.2111212 -105.96484051 42.06060853 -109.42388916 42.91384888 C-110.80633922 43.25464488 -112.18880589 43.59537352 -113.57128906 43.93603516 C-114.25605442 44.1048073 -114.94081978 44.27357944 -115.6463356 44.4474659 C-120.02665917 45.52394503 -124.41218825 46.57622896 -128.80179024 47.61419773 C-131.77027551 48.31818662 -134.73602481 49.03327841 -137.70142746 49.75012779 C-139.11070586 50.08789809 -140.52120585 50.42061643 -141.93294144 50.74796486 C-143.88594292 51.20132537 -145.8344637 51.67385856 -147.78271484 52.1472168 C-148.88996918 52.40931442 -149.99722351 52.67141205 -151.13803101 52.94145203 C-154.48612823 54.17980281 -156.04430126 54.98965733 -158 58 C-157.93269279 60.92403174 -157.63616018 63.18391398 -157 66 C-156.81622551 66.83823177 -156.63245102 67.67646355 -156.4431076 68.54009628 C-155.76467388 71.4904003 -155.03919606 74.42619974 -154.30371094 77.36279297 C-154.02874283 78.47621567 -153.75377472 79.58963837 -153.47047424 80.73680115 C-152.56296978 84.40640204 -151.64881108 88.0743083 -150.734375 91.7421875 C-150.09726321 94.31071956 -149.46046778 96.87932821 -148.82403564 99.44802856 C-147.48889138 104.8336576 -146.15014651 110.21838134 -144.80908203 115.60253906 C-143.27063707 121.77926996 -141.73713172 127.95720978 -140.20651221 134.13588417 C-138.72303376 140.12400655 -137.23662483 146.11139756 -135.74872589 152.098423 C-135.12144322 154.62327836 -134.49477535 157.14828654 -133.86876678 159.6734581 C-130.9528961 171.42766373 -128.01626118 183.16429072 -124.72090721 194.81848049 C-122.79709549 201.64353759 -121.08796296 208.51460559 -119.41471481 215.40476799 C-118.87957432 217.60489611 -118.33947356 219.80375591 -117.79800415 222.00233459 C-116.26279511 228.23631157 -114.73034773 234.47091599 -113.21484375 240.7097168 C-112.2780275 244.56472161 -111.33095142 248.41707829 -110.37703323 252.26788521 C-110.01835553 253.72418951 -109.66352854 255.18144801 -109.31269455 256.63966179 C-108.82543759 258.66326933 -108.32517794 260.6832385 -107.82177734 262.70288086 C-107.54151703 263.84994003 -107.26125671 264.99699921 -106.97250366 266.17881775 C-106.00208337 268.99395626 -105.46942266 270.3608974 -103 272 C-95.24735143 272.73542724 -86.71024965 269.62058514 -79.2890625 267.71875 C-77.96593864 267.38517693 -76.64265164 267.05225039 -75.31921387 266.71992493 C-71.80876971 265.83663667 -68.30053949 264.94484791 -64.79270172 264.05127335 C-61.16108422 263.12770812 -57.52749938 262.21195302 -53.89404297 261.2956543 C-48.8679182 260.02752841 -43.84237735 258.75714047 -38.81764412 257.48351192 C-31.68486746 255.67577376 -24.54851584 253.88319562 -17.40625 252.11328125 C-16.58671341 251.91014313 -15.76717682 251.707005 -14.92280579 251.49771118 C-13.38324527 251.11616831 -11.84367951 250.73464658 -10.30410767 250.35314941 C0.17471194 247.75329271 10.63031301 245.09994968 21.0078125 242.1171875 C24.05105292 241.24835397 27.10876245 240.46051556 30.1796875 239.6953125 C31.05616943 239.47456055 31.93265137 239.25380859 32.83569336 239.02636719 C34.5218479 238.60423523 36.21008336 238.19029675 37.90063477 237.78613281 C39.03069946 237.50141113 39.03069946 237.50141113 40.18359375 237.2109375 C40.84931396 237.04899902 41.51503418 236.88706055 42.20092773 236.72021484 C44.54440367 235.78206123 45.57009366 235.11040561 47 233 C47.49725433 227.85651338 46.50598626 223.47032138 45.01171875 218.59765625 C42.54690386 210.13233967 40.34279901 201.61230442 38.20703125 193.05859375 C38.0353348 192.37218685 37.86363834 191.68577995 37.68673897 190.97857285 C36.58419224 186.56987164 35.48554796 182.16020623 34.38824081 177.75019836 C33.60925071 174.62106614 32.82843639 171.4923901 32.04772282 168.36368752 C25.10516019 140.53750714 18.2323921 112.69407132 11.38111019 84.84529305 C4.92048473 58.06553224 4.92048473 58.06553224 -2.125 31.4375 C-2.36347656 30.55126953 -2.60195312 29.66503906 -2.84765625 28.75195312 C-3.08613281 27.90439453 -3.32460937 27.05683594 -3.5703125 26.18359375 C-3.77414551 25.44681396 -3.97797852 24.71003418 -4.18798828 23.95092773 C-5.12722767 21.69432461 -6.08568122 20.51131971 -8 19 C-14.33952339 18.24391005 -20.21039611 20.08662733 -26.3125 21.6875 Z " fill="#F5E6C9" transform="translate(190,127)"/>
<path d="M0 0 C1.98131081 7.78640823 3.95505419 15.57467808 5.9190836 23.36546135 C6.83123618 26.98271936 7.74601143 30.59927205 8.66674805 34.21435547 C9.55470687 37.70114388 10.43581823 41.18959632 11.31214714 44.6793251 C11.6482044 46.01244193 11.9867519 47.34493349 12.32779121 48.67678452 C12.80391257 50.53791083 13.27048062 52.40147331 13.73657227 54.26513672 C14.00526627 55.32658905 14.27396027 56.38804138 14.55079651 57.48165894 C15 60 15 60 14 62 C11.37754822 62.85656738 11.37754822 62.85656738 7.82006836 63.72070312 C7.17143546 63.88068063 6.52280256 64.04065813 5.85451412 64.20548344 C3.68478905 64.73856145 1.51239839 65.25983431 -0.66015625 65.78125 C-2.18799703 66.15428089 -3.7156531 66.52806899 -5.24313354 66.90257263 C-8.49314439 67.69781591 -11.74432952 68.48798812 -14.99655151 69.2741394 C-20.04927657 70.49559683 -25.09922783 71.7282336 -30.14868164 72.96313477 C-35.96296097 74.38442853 -41.77775183 75.80357911 -47.59343243 77.21912861 C-58.56968083 79.89097966 -69.53902123 82.58969799 -80.49874878 85.32861328 C-82.86518138 85.9194441 -85.23246448 86.50676529 -87.59985352 87.09375 C-94.13020984 88.72069363 -100.61708747 90.39719324 -107.02319336 92.46826172 C-109.71422729 93.19211894 -112.23464609 93.21831741 -115 93 C-117.38558961 86.258022 -119.22922185 79.45386985 -120.91796875 72.5078125 C-121.18007645 71.44005585 -121.44218414 70.37229919 -121.7122345 69.27218628 C-122.2610824 67.03216689 -122.8080676 64.79169035 -123.35327148 62.55078125 C-124.19036647 59.11322878 -125.0352192 55.67764663 -125.88085938 52.2421875 C-126.41452511 50.06000892 -126.94774418 47.87772104 -127.48046875 45.6953125 C-127.73354294 44.66721466 -127.98661713 43.63911682 -128.24736023 42.5798645 C-128.47792618 41.62812347 -128.70849213 40.67638245 -128.94604492 39.69580078 C-129.15017502 38.85912872 -129.35430511 38.02245667 -129.56462097 37.16043091 C-130 35 -130 35 -130 32 C-103.046875 25.26171875 -103.046875 25.26171875 -100.10681152 24.52676392 C-98.15958898 24.03991757 -96.21240476 23.55291789 -94.26525879 23.06576538 C-89.97653654 21.99294523 -85.68751307 20.92147126 -81.39648438 19.85791016 C-73.73676287 17.95740529 -66.10939445 15.96748663 -58.5 13.875 C-47.48114962 10.8811704 -36.42653374 8.03674271 -25.35375977 5.24981689 C-23.53971248 4.79289674 -21.7260694 4.33436875 -19.9128418 3.87420654 C-17.3519511 3.22504205 -14.78953386 2.58230004 -12.2265625 1.94140625 C-11.06883835 1.64661629 -11.06883835 1.64661629 -9.88772583 1.34587097 C-6.45381175 0.49465799 -3.56279835 0 0 0 Z " fill="#508B6C" transform="translate(209,292)"/>
<path d="M0 0 C24.99733352 12.3215203 49.84138703 25.09740197 74 39 C72.42982112 44.54023345 69.80407166 49.20413657 67 54.1875 C61.45393329 64.18701679 56.2005197 74.31793986 51 84.5 C45.56685127 95.12894671 40.06520875 105.70131652 34.29199219 116.15087891 C28.31751595 126.98932613 22.66978626 137.99995217 17 149 C12.68691836 148.37824473 9.37361822 146.83593569 5.51953125 144.83203125 C4.90663742 144.51473557 4.29374359 144.19743988 3.66227722 143.87052917 C2.36730027 143.19847517 1.07389424 142.52338653 -0.21801758 141.84545898 C-2.1605727 140.8266229 -4.10806063 139.81780296 -6.05664062 138.81054688 C-13.1838055 135.10851819 -20.17923437 131.24711802 -27 127 C-14.47880074 63.82771828 -14.47880074 63.82771828 -9.7487793 43.72973633 C-7.6127393 34.56028058 -5.83697049 25.31430889 -4.05395508 16.07080078 C-3.81572021 14.85118652 -3.57748535 13.63157227 -3.33203125 12.375 C-3.12296143 11.28960937 -2.9138916 10.20421875 -2.69848633 9.0859375 C-1.99303564 5.96923123 -1.06144938 3.01219831 0 0 Z " fill="#F84567" transform="translate(389,162)"/>
<path d="M0 0 C1.63459857 0.3186948 3.26918355 0.6374593 4.90376282 0.95625305 C5.81402379 1.13375752 6.72428476 1.311262 7.6621294 1.49414539 C25.51632326 4.9841291 43.25410448 9.00266664 61 13 C62.05626448 17.00883653 61.86126342 19.91619886 61.03125 23.9609375 C60.67426025 25.72836304 60.67426025 25.72836304 60.31005859 27.53149414 C59.90907959 29.43402954 59.90907959 29.43402954 59.5 31.375 C59.22555959 32.7100994 58.9516431 34.04530658 58.67822266 35.38061523 C56.42907813 46.28078261 53.96658556 57.13227126 51.47558594 67.97924805 C49.55625797 76.37979273 47.83088686 84.79281827 46.27685547 93.26782227 C45.31664495 98.47061692 44.14616174 103.56446728 42.7890625 108.6796875 C41.42998864 114.39856263 40.40980284 120.18661158 39.35742188 125.96875 C39.19564453 126.84789062 39.03386719 127.72703125 38.8671875 128.6328125 C38.72394043 129.42574707 38.58069336 130.21868164 38.43310547 131.03564453 C38 133 38 133 37 135 C29.45614428 134.44890325 22.2442301 133.11104653 14.875 131.4375 C13.823125 131.20353516 12.77125 130.96957031 11.6875 130.72851562 C9.12379565 130.15750875 6.56139504 129.58126181 4 129 C3.47320133 115.57674432 2.95130977 102.15330719 2.43539429 88.72962856 C2.1955928 82.49405649 1.95420737 76.25855476 1.70898438 70.02319336 C1.47164699 63.98676552 1.23875441 57.95018001 1.00872803 51.91346931 C0.92096791 49.62977231 0.83170319 47.34613253 0.74078369 45.06255913 C0.1437104 30.0337878 -0.12229641 15.04071988 0 0 Z " fill="#FDB11A" transform="translate(291,140)"/>
<path d="M0 0 C18.93720633 9.33810174 37.71413033 19.0088086 56.18945312 29.23144531 C61.93022814 32.38574024 67.72583309 35.41501869 73.5625 38.38671875 C74.30905853 38.76754105 75.05561707 39.14836334 75.82479858 39.54072571 C79.55584001 41.44250518 83.29122657 43.33491332 87.03369141 45.21411133 C88.41061962 45.91330281 89.78741605 46.61275392 91.1640625 47.3125 C91.79538086 47.62559616 92.42669922 47.93869232 93.07714844 48.26127625 C96.62598091 50.07580819 99.57894286 51.79497434 102 55 C102.56752212 58.7247296 101.78394982 60.9952353 99.9375 64.2109375 C99.47843262 65.02780029 99.01936523 65.84466309 98.54638672 66.6862793 C97.78092529 68.01719604 97.78092529 68.01719604 97 69.375 C91.76155375 78.71798484 86.76207431 88.15808683 81.875 97.6875 C81.17928123 99.04134374 80.48339962 100.39510382 79.78735352 101.7487793 C78.77450137 103.71860054 77.7616721 105.688433 76.74934387 107.65852356 C71.47386519 117.92117832 66.08906699 128.12385195 60.62109375 138.28515625 C59.37220673 140.60666941 58.12346225 142.92825845 56.875 145.25 C56.5592804 145.83689606 56.24356079 146.42379211 55.91827393 147.0284729 C50.42389483 157.25070721 45.08485975 167.54799332 39.78723145 177.87329102 C35.67085882 185.8913803 31.48734982 193.86214384 27.125 201.75 C21.88181108 211.23195644 16.93254435 220.85427995 12 230.5 C6.82468584 240.61564996 1.62843876 250.71128451 -3.8125 260.6875 C-4.50375977 261.95787109 -4.50375977 261.95787109 -5.20898438 263.25390625 C-12.48741319 276.48741319 -12.48741319 276.48741319 -15 279 C-20.01356411 279.47818158 -22.95935807 278.33379015 -27.32421875 275.9296875 C-27.91112991 275.61097687 -28.49804108 275.29226624 -29.10273743 274.96389771 C-30.9709742 273.9458901 -32.82915493 272.91093367 -34.6875 271.875 C-35.91538497 271.20197315 -37.14389651 270.53008808 -38.37304688 269.859375 C-40.77383653 268.54683589 -43.17071559 267.22760458 -45.56396484 265.90136719 C-50.36385383 263.24529675 -55.18153979 260.62218194 -60 258 C-59.2575 257.34 -58.515 256.68 -57.75 256 C-54.53819246 252.82479426 -52.81524279 249.08683153 -51 245 C-44.21272018 246.85006314 -38.43261442 250.62344726 -32.43164062 254.1875 C-27.3218089 257.10740384 -23.90939683 258.69143963 -18 258 C-11.60323627 246.75674704 -5.55671954 235.35133952 0.35290527 223.84616089 C4.40371712 215.96419744 8.52247626 208.13021532 12.8125 200.375 C18.49517219 190.09020506 23.83849104 179.63980279 29.18670654 169.17883301 C33.66123203 160.43126854 38.17215193 151.71891832 42.9375 143.125 C48.78990482 132.56739472 54.25382287 121.81716059 59.74188232 111.06747437 C65.95871316 98.89632437 72.31079076 86.82161004 78.97290039 74.88647461 C79.31184326 74.26393799 79.65078613 73.64140137 80 73 C80.37181396 72.33685791 80.74362793 71.67371582 81.12670898 70.99047852 C82.43389883 68.01102121 82.12329064 65.20555657 82 62 C68.21992009 54.29344347 68.21992009 54.29344347 54.1875 47.0625 C44.75360868 42.41180358 35.43388303 37.55107174 26.13183594 32.64257812 C22.83913414 30.91562944 19.53318712 29.21574255 16.2265625 27.515625 C14.02557578 26.36547445 11.82504248 25.2144557 9.625 24.0625 C8.57828125 23.53116455 7.5315625 22.9998291 6.453125 22.45239258 C5.49148438 21.94345459 4.52984375 21.4345166 3.5390625 20.91015625 C2.68521973 20.46808838 1.83137695 20.02602051 0.95166016 19.57055664 C-1 18 -1 18 -1.80493164 15.52636719 C-2.05566954 12.27901326 -1.61321085 9.39458084 -1.0625 6.1875 C-0.86785156 5.02605469 -0.67320312 3.86460937 -0.47265625 2.66796875 C-0.23869141 1.34732422 -0.23869141 1.34732422 0 0 Z " fill="#E5C793" transform="translate(394,133)"/>
<path d="M0 0 C7.71563031 0.55953044 14.99396456 2.00016283 22.5161438 3.78106689 C33.15679426 6.2962458 43.8125189 8.61972918 54.5625 10.625 C62.87738608 12.18968766 71.17199996 13.81553489 79.4375 15.625 C80.36183838 15.81916504 81.28617676 16.01333008 82.23852539 16.21337891 C83.08664795 16.40335449 83.93477051 16.59333008 84.80859375 16.7890625 C85.54907959 16.95100098 86.28956543 17.11293945 87.05249023 17.27978516 C89.36848348 18.13627006 90.48665414 19.05775049 92 21 C92.63896091 26.9484218 91.1554273 32.39264322 89.75 38.125 C88.02160569 45.4340212 86.4198413 52.73798629 85.0625 60.125 C83.36755708 69.27062951 81.45611187 78.36000772 79.49023438 87.45092773 C77.48734371 96.71429708 75.52070469 105.98469435 73.57250977 115.25970459 C73.06245474 117.68771546 72.55183375 120.1156066 72.04101562 122.54345703 C71.78806229 123.74571426 71.78806229 123.74571426 71.52999878 124.97225952 C71.36154449 125.77289825 71.19309021 126.57353699 71.01953125 127.3984375 C70.02076265 132.14604156 69.02227024 136.89370303 68.02490234 141.64160156 C67.10223894 146.03238832 66.17726477 150.42268269 65.25 154.8125 C65.03047668 155.85215408 65.03047668 155.85215408 64.80651855 156.91281128 C63.22738741 164.37967215 61.61251503 171.83285265 59.8125 179.25 C58.40720382 185.07871792 57.22059591 190.91807236 56.125 196.8125 C53.91457493 208.70359468 51.375064 220.51768871 48.79541016 232.33349609 C47.98027874 236.09090666 47.1826032 239.85175107 46.38671875 243.61328125 C45.86241903 246.054782 45.33769407 248.49619148 44.8125 250.9375 C44.45599365 252.64317139 44.45599365 252.64317139 44.09228516 254.38330078 C43.86202637 255.44145996 43.63176758 256.49961914 43.39453125 257.58984375 C43.19706299 258.51659912 42.99959473 259.44335449 42.79614258 260.39819336 C41.89970335 263.32777106 40.82743125 265.53864596 39 268 C32.13265676 268.92611029 25.39437898 267.07118347 18.6875 265.625 C17.60404297 265.40328125 16.52058594 265.1815625 15.40429688 264.953125 C7.38914994 263.25943329 7.38914994 263.25943329 4 261 C4.7115625 259.7625 4.7115625 259.7625 5.4375 258.5 C7.23569599 254.47204099 7.6234255 251.36826421 8 247 C9.58367747 247.14204741 11.16693318 247.28880153 12.75 247.4375 C14.07257813 247.55931641 14.07257813 247.55931641 15.421875 247.68359375 C18 248 18 248 20.0625 248.53125 C22.19278209 249.04664083 24.06224748 249.09896254 26.25 249.0625 C27.4875 249.041875 28.725 249.02125 30 249 C33.3624046 242.26512372 34.63262035 235.14378531 36.125 227.8125 C36.42305603 226.37707061 36.72173883 224.94177124 37.02099609 223.5065918 C38.02557099 218.6734136 39.01388276 213.83697322 40 209 C40.18256348 208.10506836 40.36512695 207.21013672 40.55322266 206.28808594 C41.12945036 203.46293514 41.70539779 200.63772735 42.28125 197.8125 C42.47405045 196.86663528 42.66685089 195.92077057 42.86549377 194.94624329 C43.05884811 193.99758896 43.25220245 193.04893463 43.45141602 192.0715332 C43.64502716 191.12170563 43.83863831 190.17187805 44.03811646 189.19326782 C44.43013654 187.26900387 44.82179776 185.34466677 45.21310425 183.42025757 C47.43835657 172.48043255 49.70758503 161.5620799 52.25830078 150.69262695 C54.00859984 143.1621125 55.50554412 135.58476914 57 128 C59.26679751 116.50677462 61.74565208 105.08481545 64.38671875 93.67285156 C67.40895977 80.5010782 70.22367151 67.29352947 72.65649414 53.99975586 C73.36419242 50.16417742 74.13428792 46.39144349 75.13671875 42.62109375 C76.01617572 38.93214981 75.91083341 36.64333363 75 33 C66.51931379 30.11877576 57.8232639 28.43835394 49.05764771 26.69628906 C32.62962682 23.42828725 16.29220387 19.89243604 0 16 C0 10.72 0 5.44 0 0 Z " fill="#E9D1A1" transform="translate(290,112)"/>
<path d="M0 0 C3.48078437 -0.09243927 6.96080772 -0.15591781 10.44238281 -0.20947266 C11.48555664 -0.23928223 12.52873047 -0.2690918 13.60351562 -0.29980469 C14.56354492 -0.30737793 15.52357422 -0.31495117 16.51269531 -0.32275391 C17.34816895 -0.33733643 18.18364258 -0.35191895 19.04443359 -0.36694336 C22.26463392 0.29888754 23.29415231 1.52597916 25.31738281 4.10302734 C25.90048504 7.36990643 25.90048504 7.36990643 26.01945496 11.33146667 C26.0466684 12.06141336 26.07388185 12.79136005 26.10191995 13.54342633 C26.18847345 15.99169353 26.24734571 18.43984256 26.30639648 20.88891602 C26.36282034 22.64567369 26.42094306 24.40237749 26.4806366 26.1590271 C26.63835201 30.9440336 26.77207264 35.72944963 26.90160155 40.51529098 C27.04220553 45.5614288 27.20461237 50.60686562 27.36457825 55.65242004 C27.66573896 65.25740896 27.94693768 74.86287728 28.22121269 84.46866733 C28.52958675 95.23301082 28.86095152 105.99660478 29.19399679 116.76020849 C30.50359233 159.16231839 31.69250802 201.56594528 32.62988281 243.97802734 C32.66015721 244.88877675 32.69043161 245.79952616 32.72162342 246.73787403 C32.77135067 252.46843567 32.77135067 252.46843567 30.84472656 255.16162109 C27.0718472 256.56697492 23.55529799 256.41948977 19.56738281 256.29052734 C18.77460938 256.27699219 17.98183594 256.26345703 17.16503906 256.24951172 C15.21552717 256.21427958 13.26636655 256.16047555 11.31738281 256.10302734 C10.64553664 254.00050873 9.98007313 251.89594971 9.31738281 249.79052734 C8.94613281 248.61876953 8.57488281 247.44701172 8.19238281 246.23974609 C7.31738281 243.10302734 7.31738281 243.10302734 7.31738281 240.10302734 C10.94738281 239.77302734 14.57738281 239.44302734 18.31738281 239.10302734 C18.34263397 234.05745789 18.36049469 229.01192742 18.37231445 223.96630859 C18.37725634 222.25992185 18.38401111 220.55353912 18.39282227 218.84716797 C18.44355141 208.74908382 18.26635404 198.70822555 17.70619202 188.62493896 C17.14714231 178.43299935 16.97235406 168.23427504 16.76513672 158.03027344 C16.71196008 155.46071965 16.65532981 152.89125553 16.59863281 150.32177734 C16.58505737 149.59091919 16.57148193 148.86006104 16.55749512 148.10705566 C16.44913942 143.21486136 16.2318105 138.33340064 15.97328377 133.44728088 C15.38037151 122.22634096 15.02545452 111.00907328 14.74776077 99.77629089 C14.61039983 94.30033553 14.45866128 88.82476737 14.30957031 83.34912109 C14.12207452 76.43409672 13.93893197 69.51903336 13.77050781 62.60351562 C13.63265108 56.95855574 13.48086537 51.31412293 13.31962204 45.66978455 C13.26107172 43.52967207 13.20768742 41.38941172 13.15959549 39.2490387 C13.09213556 36.2747051 13.00691765 33.30137897 12.91748047 30.32763672 C12.90178513 29.44771561 12.88608978 28.56779449 12.86991882 27.66120911 C12.74760599 24.11466638 12.64483014 21.71172139 10.94564819 18.55310059 C8.47988332 16.35718111 6.63525942 16.67827298 3.37988281 16.79052734 C2.12046875 16.82533203 0.86105469 16.86013672 -0.43652344 16.89599609 C-5.80888428 17.14208732 -11.17923066 17.43996673 -16.54858398 17.74414062 C-27.25335182 18.30952259 -37.96673643 18.193205 -48.68261719 18.10302734 C-48.94308838 17.55308105 -49.20355957 17.00313477 -49.47192383 16.43652344 C-49.8211792 15.7154541 -50.17043457 14.99438477 -50.53027344 14.25146484 C-50.87324463 13.53651855 -51.21621582 12.82157227 -51.56958008 12.08496094 C-54.06973636 7.63304853 -58.00523739 5.70670042 -62.68261719 4.10302734 C-62.68261719 3.77302734 -62.68261719 3.44302734 -62.68261719 3.10302734 C-41.78637509 1.49975302 -20.94921887 0.58608926 0 0 Z " fill="#F0DDB6" transform="translate(253.6826171875,111.89697265625)"/>
<path d="M0 0 C1.47786304 0.00503337 2.95572777 0.00959298 4.43359375 0.01367188 C7.99743195 0.02451282 11.56120447 0.04167221 15.125 0.0625 C15.4421101 7.93731927 15.75393033 15.81234156 16.0625 23.6875 C16.10857391 24.86309479 16.15464783 26.03868958 16.20211792 27.24990845 C16.85700284 44.06148806 17.42406976 60.87128008 17.78295898 77.69189453 C17.95723211 85.52518073 18.29140434 93.32701211 18.78491211 101.1468811 C19.11358237 106.48144631 19.2494648 111.78231802 19.1875 117.125 C19.166875 119.744375 19.14625 122.36375 19.125 125.0625 C12.525 125.0625 5.925 125.0625 -0.875 125.0625 C-2.5625 117.6875 -2.5625 117.6875 -3.05737305 115.49462891 C-4.09408756 111.03246701 -5.26819623 106.61876142 -6.51391315 102.21032143 C-9.54421111 91.4760822 -12.28175551 80.67887547 -14.95703125 69.8515625 C-15.42062133 67.98112827 -15.88430215 66.11071653 -16.34806824 64.24032593 C-17.30863216 60.36345914 -18.26716157 56.48609617 -19.22436523 52.60839844 C-20.45118666 47.63977168 -21.68471582 42.67283604 -22.91988087 37.70627785 C-23.87444109 33.86384357 -24.82476548 30.02037116 -25.77387047 26.17658615 C-26.2273127 24.34298427 -26.68224684 22.50975065 -27.13871193 20.67689896 C-27.77243943 18.1302327 -28.4002702 15.58218279 -29.02661133 13.03369141 C-29.21512161 12.28153854 -29.4036319 11.52938568 -29.59785461 10.75444031 C-30.41986541 7.38489458 -30.875 4.55758504 -30.875 1.0625 C-20.55228287 0.15719546 -10.35241297 -0.0623923 0 0 Z " fill="#636A97" transform="translate(239.875,140.9375)"/>
<path d="M0 0 C4.1753694 0.6180028 7.38030636 2.0384231 11.11328125 3.984375 C12.27923828 4.59023438 13.44519531 5.19609375 14.64648438 5.8203125 C15.550802 6.29645996 15.550802 6.29645996 16.47338867 6.78222656 C18.29299708 7.73973721 20.11763089 8.68703337 21.94335938 9.6328125 C28.12882097 12.863566 34.1509447 16.19266462 40 20 C38.62062154 24.50128655 36.82719918 28.52483551 34.65625 32.69921875 C34.3305603 33.32826111 34.00487061 33.95730347 33.66931152 34.60540771 C32.61709067 36.63499402 31.55868337 38.66127839 30.5 40.6875 C29.77570999 42.08128928 29.05175311 43.47525172 28.328125 44.86938477 C22.92576769 55.26733099 17.48677535 65.64634941 12 76 C6.29676416 74.37317535 1.31986097 71.66802013 -3.875 68.875 C-5.19371094 68.17310547 -5.19371094 68.17310547 -6.5390625 67.45703125 C-8.69494271 66.3087907 -10.84846777 65.15636097 -13 64 C-12.12202495 57.01751608 -10.69748997 50.14684608 -9.3125 43.25 C-9.18260681 42.60069519 -9.05271362 41.95139038 -8.91888428 41.28240967 C-6.15267525 27.47501097 -3.12385909 13.7309176 0 0 Z " fill="#D43765" transform="translate(359,302)"/>
<path d="M0 0 C9.9246265 0.43720822 19.3722704 2.72281423 29 5 C28.21690414 12.44873328 26.73733711 19.72614702 25.25 27.0625 C24.98286972 28.38947754 24.71578032 29.7164633 24.44873047 31.04345703 C22.0896606 42.72247304 19.5872563 54.36950154 17 66 C13.3863669 67.03198323 10.9530393 66.81192462 7.25 66.0625 C5.8592627 65.78104126 5.8592627 65.78104126 4.44042969 65.49389648 C3.63508789 65.33091064 2.82974609 65.1679248 2 65 C1.15217172 55.29834781 0.71061663 45.60682735 0.4375 35.875 C0.41632111 35.15676056 0.39514221 34.43852112 0.37332153 33.69851685 C0.04319225 22.4642783 -0.13187998 11.2391048 0 0 Z " fill="#EC9125" transform="translate(296,282)"/>
<path d="M0 0 C-3.2150072 2.14333814 -5.5933948 2.79924758 -9.32885742 3.72412109 C-9.96683762 3.88379868 -10.60481781 4.04347626 -11.26213074 4.20799255 C-13.3752303 4.73539602 -15.49029562 5.25441843 -17.60546875 5.7734375 C-19.08755624 6.14162398 -20.5695133 6.51033581 -22.05134583 6.87954712 C-25.96482067 7.85313969 -29.88000542 8.81967483 -33.79559326 9.784729 C-37.72087248 10.75340326 -41.6445618 11.72846979 -45.56835938 12.703125 C-51.37436401 14.14469151 -57.18127294 15.582535 -62.98901367 17.01708984 C-70.99668715 18.9953743 -78.99885654 20.99548922 -87 23 C-87.10812003 20.24894578 -87.18734945 17.50214913 -87.25 14.75 C-87.28351563 13.97269531 -87.31703125 13.19539062 -87.3515625 12.39453125 C-87.36445312 11.64042969 -87.37734375 10.88632813 -87.390625 10.109375 C-87.41157227 9.41811523 -87.43251953 8.72685547 -87.45410156 8.01464844 C-86.75312193 4.90471085 -85.5854082 3.84777065 -83 2 C-80.13684602 1.59170341 -77.64518333 1.41854223 -74.78125 1.42578125 C-73.97526871 1.4119339 -73.16928741 1.39808655 -72.33888245 1.38381958 C-69.72582592 1.34237511 -67.11332948 1.32750148 -64.5 1.3125 C-62.70236137 1.28808735 -60.90475132 1.26147257 -59.10717773 1.23266602 C-56.4534236 1.19017293 -53.79973413 1.14872586 -51.14585876 1.11454773 C-45.10655358 1.03493955 -39.09081612 0.81833153 -33.0625 0.4375 C-22.05036646 -0.22048843 -11.02714823 -0.09279708 0 0 Z " fill="#EFDDB6" transform="translate(183,115)"/>
<path d="M0 0 C5.28 0 10.56 0 16 0 C17.59241809 20.71565319 18.28014383 41.22410289 18 62 C17.01 62 16.02 62 15 62 C13.04002391 54.36024217 11.08390896 46.7195107 9.13272858 39.07750225 C8.22661665 35.52912408 7.31917372 31.9810974 6.40869141 28.43383789 C5.53023392 25.01114488 4.65526969 21.58757637 3.7827301 18.16337013 C3.28657697 16.22008292 2.78680149 14.27772173 2.2869873 12.33537292 C1.83652039 10.56387627 1.83652039 10.56387627 1.37695312 8.7565918 C1.11047974 7.71512497 0.84400635 6.67365814 0.56945801 5.60063171 C0 3 0 3 0 0 Z " fill="#5E6590" transform="translate(243,278)"/>
<path d="M0 0 C6.08960618 0.06756845 11.86325697 1.39801297 17.78515625 2.71875 C18.88923828 2.95722656 19.99332031 3.19570312 21.13085938 3.44140625 C23.83003083 4.02564249 26.52706749 4.61823965 29.22265625 5.21875 C29.22265625 5.54875 29.22265625 5.87875 29.22265625 6.21875 C24.49648213 6.98137664 19.98060912 7.33767423 15.1953125 7.31640625 C13.90947266 7.31318359 12.62363281 7.30996094 11.29882812 7.30664062 C9.9609368 7.29828802 8.62304618 7.28982311 7.28515625 7.28125 C5.91992351 7.27622659 4.55468899 7.27166517 3.18945312 7.26757812 C-0.13285832 7.25583851 -3.45507783 7.23941679 -6.77734375 7.21875 C-4.55772439 0.26394267 -4.55772439 0.26394267 0 0 Z " fill="#DFC699" transform="translate(209.77734375,94.78125)"/>
<path d="M0 0 C7.16707877 0.32577631 12.76927124 3.65443628 19 7 C15.81579155 8.06140282 14.91540891 7.95892549 11.76953125 7.22265625 C10.96708984 7.03896484 10.16464844 6.85527344 9.33789062 6.66601562 C8.50451172 6.46685547 7.67113281 6.26769531 6.8125 6.0625 C5.96751953 5.86720703 5.12253906 5.67191406 4.25195312 5.47070312 C2.166307 4.98758736 0.08292386 4.49472096 -2 4 C-1.34 2.68 -0.68 1.36 0 0 Z " fill="#DBBC8C" transform="translate(336,105)"/>
</svg>
